<?xml version="1.0" encoding="utf-8"?>
<!-- Generator: Adobe Illustrator 21.1.0, SVG Export Plug-In . SVG Version: 6.00 Build 0)  -->
<svg version="1.1" id="Layer_1" xmlns="http://www.w3.org/2000/svg" xmlns:xlink="http://www.w3.org/1999/xlink" x="0px" y="0px"
	 width="18px" height="16.9px" viewBox="0 0 18 16.9" style="enable-background:new 0 0 18 16.9;" xml:space="preserve">
<style type="text/css">
	.st0{fill:#FFFFFF;}
</style>
<g>
	<path class="st0" d="M10.4,15.7c-0.2,0.6-0.8,0.7-1.4,0.7c-0.6,0-1.2-0.1-1.4-0.7C7.4,14.9,7,12.6,7,11.6c0-1.1,1-1.4,2-1.4
		s2,0.3,2,1.4C11,12.6,10.6,14.8,10.4,15.7L10.4,15.7z M6.9,9.5C6.3,8.9,6,8.1,6,7.2c0.1-1.6,1.3-2.8,2.9-2.9c1.7-0.1,3.1,1.3,3.1,3
		c0,0.8-0.3,1.6-0.9,2.1c-0.1,0.1-0.1,0.2,0,0.3c0.3,0.2,0.5,0.5,0.7,0.8c0.1,0.1,0.2,0.1,0.3,0.1c0.9-0.8,1.5-2.1,1.4-3.4
		c-0.1-2.4-2-4.3-4.4-4.4c-2.5-0.1-4.6,2-4.6,4.5c0,1.3,0.5,2.5,1.4,3.3c0.1,0.1,0.2,0.1,0.3-0.1c0.1-0.3,0.4-0.6,0.7-0.8
		C7,9.7,7,9.6,6.9,9.5L6.9,9.5z M9,0.5c-3.9,0-7,3.1-7,7c0,2.8,1.6,5.2,3.9,6.3c0.1,0.1,0.3,0,0.3-0.2c-0.1-0.5-0.1-1-0.2-1.4
		c0-0.1,0-0.1-0.1-0.1c-1.5-1-2.5-2.7-2.4-4.6C3.5,4.4,6,2,9,2c3,0,5.5,2.5,5.5,5.5c0,1.9-1,3.6-2.5,4.6c0,0.4-0.1,1-0.2,1.5
		c0,0.1,0.1,0.3,0.3,0.2c2.3-1.1,3.9-3.5,3.9-6.3C16,3.6,12.9,0.5,9,0.5z M9,5.5c-1.1,0-2,0.9-2,2s0.9,2,2,2s2-0.9,2-2
		S10.1,5.5,9,5.5z"/>
</g>
</svg>
