<?xml version="1.0" encoding="utf-8"?>
<!-- Generator: Adobe Illustrator 21.1.0, SVG Export Plug-In . SVG Version: 6.00 Build 0)  -->
<svg version="1.1" id="Layer_1" xmlns="http://www.w3.org/2000/svg" xmlns:xlink="http://www.w3.org/1999/xlink" x="0px" y="0px"
	 width="32px" height="32px" viewBox="0 0 32 32" style="enable-background:new 0 0 32 32;" xml:space="preserve">
<style type="text/css">
	.st0{fill:#FFFFFF;}
</style>
<g>
	<path d="M29,32H3c-1.7,0-3-1.3-3-3V3c0-1.7,1.3-3,3-3h26c1.7,0,3,1.3,3,3v26C32,30.7,30.7,32,29,32z"/>
</g>
<g>
	<path class="st0" d="M23.1,22.5c-0.7,1.3-1.7,2.3-3,3c-1.3,0.7-2.7,1.1-4.2,1.1c-1.5,0-2.9-0.4-4.2-1.1s-2.3-1.7-3-3
		s-1.1-2.7-1.1-4.2c0-1.4,0.3-2.6,0.9-3.8c0.6-1.2,1.5-2.2,2.5-2.9c1.1-0.8,2.3-1.2,3.6-1.4V8.8h-1.1c-0.1,0-0.2,0-0.3-0.1
		C13.1,8.6,13,8.4,13,8.3V6.7c0-0.1,0-0.2,0.1-0.3c0.1-0.1,0.2-0.1,0.3-0.1h4.8c0.1,0,0.2,0,0.3,0.1c0.1,0.1,0.1,0.2,0.1,0.3v1.6
		c0,0.1,0,0.2-0.1,0.3c-0.1,0.1-0.2,0.1-0.3,0.1h-1.1v1.4c1.5,0.2,2.8,0.8,4,1.8l1.1-1.1c0.1-0.1,0.2-0.2,0.4-0.2s0.2,0.1,0.3,0.2
		l1.2,1.1c0.1,0.1,0.1,0.2,0.1,0.3s0,0.3-0.1,0.4l-1.2,1.2c0.9,1.4,1.3,2.9,1.3,4.5C24.2,19.9,23.8,21.3,23.1,22.5z M17.2,13.7
		c0-0.1,0-0.2-0.1-0.3c-0.1-0.1-0.2-0.2-0.3-0.2h-1.6c-0.1,0-0.2,0.1-0.3,0.2c-0.1,0.1-0.1,0.2-0.1,0.3v6.1c0,0.1,0,0.2,0.1,0.3
		c0.1,0.1,0.2,0.1,0.3,0.1h1.6c0.1,0,0.2,0,0.3-0.1c0.1-0.1,0.1-0.2,0.1-0.3V13.7z"/>
</g>
</svg>
