<?xml version="1.0" encoding="utf-8"?>
<!-- Generator: Adobe Illustrator 21.1.0, SVG Export Plug-In . SVG Version: 6.00 Build 0)  -->
<svg version="1.1" id="Layer_1" xmlns="http://www.w3.org/2000/svg" xmlns:xlink="http://www.w3.org/1999/xlink" x="0px" y="0px"
	 width="32px" height="32px" viewBox="0 0 32 32" style="enable-background:new 0 0 32 32;" xml:space="preserve">
<style type="text/css">
	.st0{fill:#FFFFFF;}
</style>
<g>
	<path d="M29,32H3c-1.7,0-3-1.3-3-3V3c0-1.7,1.3-3,3-3h26c1.7,0,3,1.3,3,3v26C32,30.7,30.7,32,29,32z"/>
</g>
<g>
	<path class="st0" d="M26.4,17.3c0.4,0.4,0.8,0.5,1.3,0.5v3.8c0,0.5-0.2,1-0.5,1.3c-0.4,0.4-0.8,0.5-1.3,0.5H7.1
		c-0.5,0-1-0.2-1.3-0.5c-0.4-0.4-0.5-0.8-0.5-1.3v-3.8c0.5,0,1-0.2,1.3-0.5c0.4-0.4,0.5-0.8,0.5-1.3s-0.2-1-0.5-1.3
		c-0.4-0.4-0.8-0.5-1.3-0.5v-3.8c0-0.5,0.2-1,0.5-1.3c0.4-0.4,0.8-0.5,1.3-0.5h18.8c0.5,0,1,0.2,1.3,0.5c0.4,0.4,0.5,0.8,0.5,1.3
		v3.8c-0.5,0-1,0.2-1.3,0.5c-0.4,0.4-0.5,0.8-0.5,1.3S26,16.9,26.4,17.3z M23.7,11.2c-0.2-0.2-0.4-0.3-0.7-0.3H9.9
		c-0.3,0-0.5,0.1-0.7,0.3C9,11.4,9,11.6,9,11.9V20c0,0.3,0.1,0.5,0.3,0.7c0.2,0.2,0.4,0.3,0.7,0.3H23c0.3,0,0.5-0.1,0.7-0.3
		S24,20.3,24,20v-8.1C24,11.6,23.9,11.4,23.7,11.2z M22.7,12.2v7.5H10.2v-7.5H22.7z"/>
</g>
</svg>
