<?xml version="1.0" encoding="utf-8"?>
<!-- Generator: Adobe Illustrator 21.1.0, SVG Export Plug-In . SVG Version: 6.00 Build 0)  -->
<svg version="1.1" id="Layer_1" xmlns="http://www.w3.org/2000/svg" xmlns:xlink="http://www.w3.org/1999/xlink" x="0px" y="0px"
	 width="32px" height="32px" viewBox="0 0 32 32" style="enable-background:new 0 0 32 32;" xml:space="preserve">
<style type="text/css">
	.st0{fill:#FFFFFF;}
</style>
<g>
	<path d="M29,32H3c-1.7,0-3-1.3-3-3V3c0-1.7,1.3-3,3-3h26c1.7,0,3,1.3,3,3v26C32,30.7,30.7,32,29,32z"/>
</g>
<g>
	<path class="st0" d="M11.4,20.8c-0.1,0.1-0.2,0.1-0.3,0.1s-0.2,0-0.3-0.1L6,16.4c-0.1-0.1-0.1-0.2-0.1-0.3s0-0.2,0.1-0.3l4.8-4.5
		c0.1-0.1,0.2-0.1,0.3-0.1s0.2,0,0.3,0.1l1.4,1.5c0.1,0.1,0.1,0.2,0.1,0.3c0,0.1,0,0.2-0.1,0.3l-3,2.6l3,2.6
		c0.1,0.1,0.1,0.2,0.1,0.3c0,0.1,0,0.2-0.1,0.3L11.4,20.8z M15.1,24.5c0.1,0,0.2,0,0.3,0c0.1-0.1,0.2-0.1,0.2-0.2l4.5-15.6
		c0-0.1,0-0.2,0-0.3c-0.1-0.1-0.1-0.2-0.2-0.2l-2-0.6c-0.1,0-0.2,0-0.3,0c-0.1,0.1-0.2,0.1-0.2,0.2l-4.5,15.6c0,0.1,0,0.2,0,0.3
		c0.1,0.1,0.1,0.2,0.2,0.2L15.1,24.5z M22.2,20.8c-0.1,0.1-0.2,0.1-0.3,0.1s-0.2,0-0.3-0.1l-1.4-1.5c-0.1-0.1-0.1-0.2-0.1-0.3
		s0-0.2,0.1-0.3l3-2.6l-3-2.6c-0.1-0.1-0.1-0.2-0.1-0.3s0-0.2,0.1-0.3l1.4-1.5c0.1-0.1,0.2-0.1,0.3-0.1s0.2,0,0.3,0.1l4.8,4.5
		c0.1,0.1,0.1,0.2,0.1,0.3s0,0.2-0.1,0.3L22.2,20.8z"/>
</g>
</svg>
