<?xml version="1.0" encoding="utf-8"?>
<!-- Generator: Adobe Illustrator 21.1.0, SVG Export Plug-In . SVG Version: 6.00 Build 0)  -->
<svg version="1.1" id="Layer_1" xmlns="http://www.w3.org/2000/svg" xmlns:xlink="http://www.w3.org/1999/xlink" x="0px" y="0px"
	 width="32px" height="32px" viewBox="0 0 32 32" style="enable-background:new 0 0 32 32;" xml:space="preserve">
<style type="text/css">
	.st0{fill:#FFFFFF;}
</style>
<g>
	<path d="M29,32H3c-1.7,0-3-1.3-3-3V3c0-1.7,1.3-3,3-3h26c1.7,0,3,1.3,3,3v26C32,30.7,30.7,32,29,32z"/>
</g>
<g>
	<path class="st0" d="M9.3,10.9C9.1,10.7,9,10.4,9,10.1s0.1-0.6,0.3-0.8l1.1-1c0.2-0.2,0.5-0.3,0.8-0.3s0.6,0.1,0.8,0.3l4.5,4.5
		L21,8.3c0.2-0.2,0.5-0.3,0.8-0.3c0.3,0,0.6,0.1,0.8,0.3l1.1,1c0.2,0.2,0.3,0.5,0.3,0.8s-0.1,0.6-0.3,0.8l-6.4,6.4
		c-0.2,0.2-0.5,0.3-0.8,0.3c-0.3,0-0.6-0.1-0.8-0.3L9.3,10.9z M23.7,19.9c0.2-0.2,0.3-0.5,0.3-0.8c0-0.3-0.1-0.6-0.3-0.8l-1.1-1
		c-0.2-0.2-0.5-0.3-0.8-0.3c-0.3,0-0.6,0.1-0.8,0.3l-4.6,4.5L12,17.3c-0.2-0.2-0.5-0.3-0.8-0.3s-0.6,0.1-0.8,0.3l-1.1,1
		C9.1,18.5,9,18.8,9,19.1c0,0.3,0.1,0.6,0.3,0.8l6.4,6.4c0.2,0.2,0.5,0.3,0.8,0.3c0.3,0,0.6-0.1,0.8-0.3L23.7,19.9z"/>
</g>
</svg>
