<?xml version="1.0" encoding="utf-8"?>
<!-- Generator: Adobe Illustrator 21.1.0, SVG Export Plug-In . SVG Version: 6.00 Build 0)  -->
<svg version="1.1" id="Layer_1" xmlns="http://www.w3.org/2000/svg" xmlns:xlink="http://www.w3.org/1999/xlink" x="0px" y="0px"
	 width="32px" height="32px" viewBox="0 0 32 32" style="enable-background:new 0 0 32 32;" xml:space="preserve">
<style type="text/css">
	.st0{fill:#FFFFFF;}
</style>
<g>
	<path d="M29,32H3c-1.7,0-3-1.3-3-3V3c0-1.7,1.3-3,3-3h26c1.7,0,3,1.3,3,3v26C32,30.7,30.7,32,29,32z"/>
</g>
<g>
	<path class="st0" d="M11.8,11.1c0,0.3-0.1,0.5-0.3,0.7S11.1,12,10.8,12H6.9c-0.3,0-0.5-0.1-0.7-0.3S6,11.3,6,11.1V8
		c0-0.3,0.1-0.5,0.3-0.7S6.6,7,6.9,7h3.9c0.3,0,0.5,0.1,0.7,0.3s0.3,0.4,0.3,0.7V11.1z M6.9,13.2c-0.3,0-0.5,0.1-0.7,0.3
		S6,13.9,6,14.2v3.1c0,0.3,0.1,0.5,0.3,0.7s0.4,0.3,0.7,0.3h3.9c0.3,0,0.5-0.1,0.7-0.3s0.3-0.4,0.3-0.7v-3.1c0-0.3-0.1-0.5-0.3-0.7
		s-0.4-0.3-0.7-0.3H6.9z M6,23.5c0,0.3,0.1,0.5,0.3,0.7s0.4,0.3,0.7,0.3h3.9c0.3,0,0.5-0.1,0.7-0.3s0.3-0.4,0.3-0.7v-3.1
		c0-0.3-0.1-0.5-0.3-0.7s-0.4-0.3-0.7-0.3H6.9c-0.3,0-0.5,0.1-0.7,0.3S6,20.1,6,20.4V23.5z M18.8,8c0-0.3-0.1-0.5-0.3-0.7
		S18.1,7,17.9,7h-4c-0.3,0-0.5,0.1-0.7,0.3C13.1,7.5,13,7.7,13,8v3.1c0,0.3,0.1,0.5,0.3,0.7c0.2,0.2,0.4,0.3,0.7,0.3h4
		c0.3,0,0.5-0.1,0.7-0.3s0.3-0.4,0.3-0.7V8z M18.8,14.2c0-0.3-0.1-0.5-0.3-0.7s-0.4-0.3-0.7-0.3h-4c-0.3,0-0.5,0.1-0.7,0.3
		c-0.2,0.2-0.3,0.4-0.3,0.7v3.1c0,0.3,0.1,0.5,0.3,0.7c0.2,0.2,0.4,0.3,0.7,0.3h4c0.3,0,0.5-0.1,0.7-0.3s0.3-0.4,0.3-0.7V14.2z
		 M13,23.5c0,0.3,0.1,0.5,0.3,0.7c0.2,0.2,0.4,0.3,0.7,0.3h4c0.3,0,0.5-0.1,0.7-0.3s0.3-0.4,0.3-0.7v-3.1c0-0.3-0.1-0.5-0.3-0.7
		s-0.4-0.3-0.7-0.3h-4c-0.3,0-0.5,0.1-0.7,0.3c-0.2,0.2-0.3,0.4-0.3,0.7V23.5z M20.1,11.1c0,0.3,0.1,0.5,0.3,0.7S20.7,12,21,12h3.9
		c0.3,0,0.5-0.1,0.7-0.3s0.3-0.4,0.3-0.7V8c0-0.3-0.1-0.5-0.3-0.7S25.2,7,24.9,7H21c-0.3,0-0.5,0.1-0.7,0.3S20.1,7.7,20.1,8V11.1z
		 M24.9,18.2c0.3,0,0.5-0.1,0.7-0.3s0.3-0.4,0.3-0.7v-3.1c0-0.3-0.1-0.5-0.3-0.7s-0.4-0.3-0.7-0.3H21c-0.3,0-0.5,0.1-0.7,0.3
		s-0.3,0.4-0.3,0.7v3.1c0,0.3,0.1,0.5,0.3,0.7s0.4,0.3,0.7,0.3H24.9z M24.9,24.4c0.3,0,0.5-0.1,0.7-0.3s0.3-0.4,0.3-0.7v-3.1
		c0-0.3-0.1-0.5-0.3-0.7s-0.4-0.3-0.7-0.3H21c-0.3,0-0.5,0.1-0.7,0.3s-0.3,0.4-0.3,0.7v3.1c0,0.3,0.1,0.5,0.3,0.7s0.4,0.3,0.7,0.3
		H24.9z"/>
</g>
</svg>
