<?xml version="1.0" encoding="utf-8"?>
<!-- Generator: Adobe Illustrator 21.1.0, SVG Export Plug-In . SVG Version: 6.00 Build 0)  -->
<svg version="1.1" id="Layer_1" xmlns="http://www.w3.org/2000/svg" xmlns:xlink="http://www.w3.org/1999/xlink" x="0px" y="0px"
	 width="32px" height="32px" viewBox="0 0 32 32" style="enable-background:new 0 0 32 32;" xml:space="preserve">
<style type="text/css">
	.st0{fill:#FFFFFF;}
</style>
<g>
	<path d="M29,32H3c-1.7,0-3-1.3-3-3V3c0-1.7,1.3-3,3-3h26c1.7,0,3,1.3,3,3v26C32,30.7,30.7,32,29,32z"/>
</g>
<path class="st0" d="M16,24.2c0,0.3-0.1,0.6-0.3,0.8c-0.2,0.2-0.5,0.3-0.8,0.3c-0.3,0-0.6-0.1-0.8-0.3l-4-4H5.5
	c-0.3,0-0.6-0.1-0.8-0.3c-0.2-0.2-0.3-0.5-0.3-0.8v-6.5c0-0.3,0.1-0.6,0.3-0.8c0.2-0.2,0.5-0.3,0.8-0.3h4.6l4-4
	C14.3,8.1,14.6,8,14.9,8c0.3,0,0.6,0.1,0.8,0.3C15.9,8.5,16,8.8,16,9.1V24.2z M22.3,14.5c-0.4-0.7-0.9-1.2-1.5-1.6
	c-0.3-0.2-0.7-0.3-1.1-0.2c-0.4,0.1-0.7,0.3-0.9,0.7c-0.2,0.3-0.3,0.7-0.2,1.1c0.1,0.4,0.3,0.7,0.7,0.9c0.4,0.3,0.7,0.7,0.7,1.2
	c0,0.5-0.2,0.9-0.6,1.2c-0.3,0.2-0.5,0.6-0.6,0.9c-0.1,0.4,0,0.7,0.2,1.1c0.2,0.3,0.5,0.5,0.9,0.6c0.4,0.1,0.8,0,1.1-0.2
	c0.6-0.4,1-0.9,1.3-1.6c0.3-0.6,0.5-1.3,0.5-2C22.8,15.9,22.7,15.2,22.3,14.5z M28.3,12.4c-0.7-1.3-1.8-2.3-3-3.1
	C25,9,24.6,9,24.2,9.1c-0.4,0.1-0.7,0.3-0.9,0.7c-0.2,0.3-0.3,0.7-0.2,1.1c0.1,0.4,0.3,0.7,0.7,0.9c0.8,0.5,1.5,1.2,2,2.1
	c0.5,0.9,0.7,1.8,0.7,2.8c0,0.9-0.2,1.8-0.7,2.7c-0.4,0.8-1,1.5-1.8,2.1c-0.3,0.2-0.5,0.6-0.6,0.9c-0.1,0.4,0,0.8,0.2,1.1
	c0.3,0.4,0.7,0.6,1.2,0.6c0.3,0,0.6-0.1,0.8-0.3c1.2-0.8,2.1-1.8,2.7-3.1c0.7-1.3,1-2.6,1-4C29.4,15.1,29,13.7,28.3,12.4z"/>
</svg>
