<?xml version="1.0" encoding="utf-8"?>
<!-- Generator: Adobe Illustrator 21.1.0, SVG Export Plug-In . SVG Version: 6.00 Build 0)  -->
<svg version="1.1" id="Layer_1" xmlns="http://www.w3.org/2000/svg" xmlns:xlink="http://www.w3.org/1999/xlink" x="0px" y="0px"
	 width="32px" height="32px" viewBox="0 0 32 32" style="enable-background:new 0 0 32 32;" xml:space="preserve">
<style type="text/css">
	.st0{fill:#FFFFFF;}
</style>
<g>
	<path d="M29,32H3c-1.7,0-3-1.3-3-3V3c0-1.7,1.3-3,3-3h26c1.7,0,3,1.3,3,3v26C32,30.7,30.7,32,29,32z"/>
</g>
<g>
	<path class="st0" d="M18,26.9c-0.3,0.9-1.2,1-2,1c-0.9,0-1.7-0.1-2-1c-0.3-1.2-0.9-4.5-0.9-5.9c0-1.6,1.4-2,2.9-2s2.9,0.4,2.9,2
		C18.9,22.4,18.3,25.6,18,26.9L18,26.9z M13,18c-0.9-0.9-1.3-2-1.3-3.3c0.1-2.3,1.9-4,4.2-4.2c2.4-0.1,4.5,1.9,4.5,4.3
		c0,1.2-0.4,2.3-1.3,3c-0.1,0.1-0.1,0.3,0,0.4c0.4,0.3,0.7,0.7,1,1.2c0.1,0.1,0.3,0.1,0.4,0.1c1.3-1.2,2.2-3,2-4.9
		c-0.1-3.5-2.9-6.2-6.3-6.3c-3.6-0.1-6.6,2.9-6.6,6.5c0,1.9,0.7,3.6,2,4.8c0.1,0.1,0.3,0.1,0.4-0.1c0.1-0.4,0.6-0.9,1-1.2
		C13.1,18.3,13.1,18.1,13,18L13,18z M16,5C10.4,5,5.9,9.5,5.9,15.1c0,4,2.3,7.5,5.6,9.1c0.1,0.1,0.4,0,0.4-0.3
		c-0.1-0.7-0.1-1.4-0.3-2c0-0.1,0-0.1-0.1-0.1c-2.2-1.4-3.6-3.9-3.5-6.6c0-4.5,3.6-7.9,7.9-7.9s7.9,3.6,7.9,7.9
		c0,2.7-1.4,5.2-3.6,6.6c0,0.6-0.1,1.4-0.3,2.2c0,0.1,0.1,0.4,0.4,0.3c3.3-1.6,5.6-5,5.6-9.1C26.1,9.5,21.6,5,16,5z M16,12.2
		c-1.6,0-2.9,1.3-2.9,2.9S14.4,18,16,18c1.6,0,2.9-1.3,2.9-2.9S17.6,12.2,16,12.2z"/>
</g>
</svg>
